# xmcd
#
# Track frame offsets:
#	150
#	13699
#	23649
#	37875
#	54699
#	65775
#	81562
#	93111
#	105761
#	122186
#	141324
#	155361
#	167787
#	179455
#	192987
#	208536
#	220846
#	233682
#	244193
#	255268
#
# Disc length: 3609 seconds
#
# Revision: 2
# Processed by: cddbd v1.5.2PL0 Copyright (c) Steve Scherf et al.
# Submitted via: audiograbber 1.83.01
#
DISCID=0e0e1714
DTITLE=Boston Pops Orchestra - Enduring Freedom
DYEAR=2003
DGENRE=Patriotic
TTITLE0=Star Spangled Banner
TTITLE1=God Bless America
TTITLE2=America the Beautiful
TTITLE3=Your're a Grand Old Flag
TTITLE4=Tie a Yellow Ribbon
TTITLE5=This Land is Your Land
TTITLE6=Columbia, the Gem of the Ocean
TTITLE7=Bless this House
TTITLE8=You'll Never Walk Alone
TTITLE9=Liberty Fanfare
TTITLE10=The Cassons Go Rolling Along
TTITLE11=Anchors Aweigh
TTITLE12=The Air Force Song
TTITLE13=Semper Paratus
TTITLE14=The Marine's Hymn
TTITLE15=Semper Fidelis
TTITLE16=National Emblem March
TTITLE17=The U.S. Field Artillery
TTITLE18=Washington Post
TTITLE19=The Stars and Stripes Forever
EXTD=Music Only - No Vocal YEAR: 2003
EXTT0=
EXTT1=
EXTT2=
EXTT3=
EXTT4=
EXTT5=
EXTT6=
EXTT7=
EXTT8=
EXTT9=
EXTT10=
EXTT11=
EXTT12=
EXTT13=
EXTT14=
EXTT15=
EXTT16=
EXTT17=
EXTT18=
EXTT19=
PLAYORDER=
